<svg xmlns="http://www.w3.org/2000/svg" shape-rendering="geometricPrecision" text-rendering="geometricPrecision" viewBox="0 0 500 200"><defs><linearGradient id="a" x1="508.68" x2="508.68" y1="520.9" y2="570.43" gradientUnits="userSpaceOnUse" spreadMethod="pad"><stop offset="1%" stop-color="#0a1924"/><stop offset="41%" stop-color="#131f2d"/><stop offset="100%" stop-color="#1c2435"/></linearGradient><linearGradient id="b" x1="573.59" x2="663.97" y1="514.47" y2="514.47" gradientUnits="userSpaceOnUse" spreadMethod="pad"><stop offset="1%" stop-color="#0a1924"/><stop offset="41%" stop-color="#131f2d"/><stop offset="100%" stop-color="#1c2435"/></linearGradient><linearGradient id="d" x1="440.127" x2="502.729" y1="566.102" y2="570.608" gradientUnits="userSpaceOnUse" spreadMethod="pad"><stop offset="0%" stop-color="#3cbfc5"/><stop offset="100%" stop-color="#0b3e3b"/></linearGradient><linearGradient id="e" x1="626.539" x2="664.346" y1="483.05" y2="454.003" gradientUnits="userSpaceOnUse" spreadMethod="pad"><stop offset="0%" stop-color="#0b3e3b"/><stop offset="42.759%" stop-color="#64a6a1"/><stop offset="100%" stop-color="#3cbfc5"/></linearGradient><linearGradient id="f" x1="500.43" x2="504.35" y1="403.43" y2="444.36" gradientUnits="userSpaceOnUse" spreadMethod="pad"><stop offset="0%" stop-color="#1c2435"/><stop offset="62%" stop-color="#191f32"/><stop offset="100%" stop-color="#14192e"/></linearGradient><linearGradient id="g" x1="503.13" x2="505.07" y1="414.26" y2="440.91" gradientUnits="userSpaceOnUse" spreadMethod="pad"><stop offset="0%" stop-color="#5f6680"/><stop offset="32%" stop-color="#5c637c"/><stop offset="62%" stop-color="#535970"/><stop offset="93%" stop-color="#44495d"/><stop offset="100%" stop-color="#3f4457"/></linearGradient><linearGradient id="h" x1="588.18" x2="583.59" y1="388.53" y2="430.13" gradientUnits="userSpaceOnUse" spreadMethod="pad"><stop offset="0%" stop-color="#1c2435"/><stop offset="62%" stop-color="#191f32"/><stop offset="100%" stop-color="#14192e"/></linearGradient><linearGradient id="i" x1="580.46" x2="581.63" y1="399.66" y2="423.13" gradientUnits="userSpaceOnUse" spreadMethod="pad"><stop offset="0%" stop-color="#5f6680"/><stop offset="32%" stop-color="#5c637c"/><stop offset="62%" stop-color="#535970"/><stop offset="93%" stop-color="#44495d"/><stop offset="100%" stop-color="#3f4457"/></linearGradient><linearGradient id="k" x1="9.71" x2="-11.06" y1="-13.64" y2="15.55" gradientUnits="userSpaceOnUse" spreadMethod="pad"><stop offset="0%" stop-color="#17286a"/><stop offset="70%" stop-color="#111c30"/><stop offset="100%" stop-color="#101a20"/></linearGradient><linearGradient id="l" x1="8.13" x2="-9.69" y1="-14.17" y2="16.9" gradientUnits="userSpaceOnUse" spreadMethod="pad"><stop offset="0%" stop-color="#17286a"/><stop offset="70%" stop-color="#111c30"/><stop offset="100%" stop-color="#101a20"/></linearGradient></defs><circle r="197.62" fill="#373f51" transform="translate(250.65 98.85) scale(.48904)"/><path fill="none" stroke="#8193c3" stroke-dasharray="34.83" stroke-dashoffset="-34.83" stroke-linecap="round" stroke-linejoin="round" stroke-width="1.133" d="M207.464 19.448V32.6m-13.124.003h13.151m13.134 0h-13.152m.004 13.141V32.592m5.205 5.483-5.219-5.46m-5.2-5.495 5.219 5.459m-5.479 5.251 5.46-5.22m5.472-5.25-5.46 5.22"/><path fill="none" stroke="#8193c3" stroke-dasharray="34.83" stroke-dashoffset="-34.83" stroke-linecap="round" stroke-linejoin="round" stroke-width=".991" d="m320.65 49.937-.01-11.503m11.478-.014-11.502.012m-11.488.011 11.503-.011m-.015-11.494.012 11.503m-4.558-4.791 4.57 4.77m4.553 4.803-4.57-4.77m4.787-4.598-4.77 4.57m-4.782 4.596 4.77-4.57"/><path fill="none" stroke="#a5b7e8" stroke-dasharray="34.83" stroke-dashoffset="-34.83" stroke-linecap="round" stroke-linejoin="round" stroke-width=".85" d="M299.497 169.971v9.865m-9.844.001h9.864m9.851 0h-9.864m.003 9.857v-9.864m3.903 4.111-3.914-4.094m-3.9-4.122 3.914 4.095m-4.11 3.938 4.095-3.915m4.105-3.937-4.094 3.914"/><g transform="translate(-47.683 -192.259) scale(.55357)"><path fill="#1c2435" d="M592.285 640.566s-29.382 37.024-93.821 30.652c-58.936-6.659-99.083-44.48-104.757-80.192-1.978-12.608 6.61-24.348 15.389-26.814s23.086 3.687 27.444 19.028 5.14 42.474 27.12 59.389c18.4 14.503 79.593 30.933 127.142-6.728 1.356 1.826.977 2.447 1.483 4.665Z"/><path fill="none" stroke="url(#a)" stroke-linecap="round" stroke-linejoin="round" stroke-width="18" d="M537.29 528.6s-27.406 2.982-39.644 14.61c-3.876 3.467-8.568 13.87 3.774 19.53"/><path fill="none" stroke="url(#b)" stroke-linecap="round" stroke-linejoin="round" stroke-width="18" d="M581.29 527.07s53.34-45.72 75-14" transform="translate(0 -1.823)"/><path fill="#151e2c" d="M548.79 555.54s-34.57-4.38-54.34 20c-5.21 6.73-15.867 25.003.717 44.371-4.2.86-8.871-4.478-12.563-10.351-7.036-13.13-16.94-13.67-22.948-8.553-6.14 4.25-6.366 20.493 9.404 30.263s49.67 22.68 95-6.16c22.65-16.82 28.6-27.59 27.94-44.11-.82-10.86-9.87-22.28-43.21-25.46Z"/><path fill="#1c2435" d="M544.353 520s-3.76 20.6-27.31 39.4c-25.18 20.09-24.15 54.45-3.78 77.39 9.67 12.07 51.42 35.56 81.85 2.41 24.76-27.94 26-64.79-5.2-126.46-16.18 3.63-24.32 6.05-45.56 7.26Z"/><path fill="#555b73" d="M585.5 517.21s5.55 18-1.15 30.37c-7.74 14.32-28.11 15.13-48.5 28.29-12.52 7.4-16.13 17.73-21.85 31.13.436 16.507-2.717 32.69-14.276 11.043-16.183-48.128 24.536-64.643 31.206-73.003 12.24-15.89 12.62-24.77 12.62-24.77Z"/><g clip-path="url(#c)" transform="translate(-.091 .307)"><path fill="#3b404e" d="m533.06 522.035 59.24-4.34c-.144 5.692-5 15.54-38.81 17.1-24.49 1.02-21.13-8.81-20.43-12.76Z"/><clipPath id="c"><path fill="none" d="M585.57 517s5.55 18-1.15 30.37c-7.74 14.33-28.11 15.14-48.51 28.3-12.52 7.4-16.13 17.72-21.89 31.15-4.12 10.56-21.36 5-15.53-21.1 4.85-20.1 25.602-31.747 32.262-40.107C542.992 529.673 543.57 520 543.57 520Z"/></clipPath></g><path fill="#1c2435" d="M557.089 572.445s-23.961-5.494-44.09 11.89c-4.13 4.15-22.688 18.515-8.208 48.66-2.15-2.137-4.14-3.965-7.79-7.45-7.28-6.27-18.33-14.362-28.19-6.98-5.47 5.38-9.14 16.52 9.73 28.75 14.29 9.25 67.443 30.971 103.963 2.116 18.359-14.866 20.962-37.152 14.16-51.732-3.352-8.8-12.347-22.868-39.575-25.254Z"/><path fill="none" stroke="#14192e" stroke-linecap="round" stroke-miterlimit="10" stroke-width=".992" d="M568.16 574.003s-4.356-1.152-11.033-1.794c-12.636-1.214-29.903-.05-45.376 13.663-5.479 4.543-20.966 22.032-6.881 46.661"/><path fill="none" stroke="url(#d)" stroke-linecap="round" stroke-miterlimit="10" stroke-width="2" d="M408.581 624.886s-15.37 11.51 1.54 2.31c54.28-33 20.159-85.676 41.879-105.736 13.63-12.59 43.43-5.43 54.05-2.54"/><path fill="none" stroke="url(#e)" stroke-linecap="round" stroke-miterlimit="10" stroke-width="2" d="M615.53 481.52s29.05-7.27 40-51.1c8-33.78-14.2-35.17-17.67-11.09-.4 2.77-3.47 25.68 11.44 46.25 15.93 22 27.483-4.213 25.353-7.623" transform="translate(.844 .62)"/><path fill="url(#f)" d="M522.88 430.63s-17.38-15.47-30.11-23.69c-3.71-2.53-10.79-4.91-11 3.76-.38 7.25 2.4 26.29 3.95 41.91 18.04-9.83 37.16-21.98 37.16-21.98Z" transform="translate(1.756 -.58)"/><path fill="url(#g)" d="M517.35 431.4s-11.29-10-19.56-15.4c-2.42-1.64-7-3.19-7.13 2.45-.25 4.71 1.55 17.09 2.57 27.24 11.7-6.39 24.12-14.29 24.12-14.29Z" transform="translate(1.756 -.58)"/><path fill="url(#h)" d="M562.71 424.43s12.24-19.78 22.08-31.3c2.84-3.49 9-7.79 11.59.47 2.44 6.84 5.22 25.88 8.18 41.29-20.06-4.27-41.85-10.46-41.85-10.46Z" transform="translate(1.756 -.58)"/><path fill="url(#i)" d="M568.22 423.6s8-12.86 14.35-20.35c1.85-2.27 5.82-5.06 7.54.31 1.58 4.44 3.39 16.82 5.32 26.83-13.05-2.77-27.21-6.79-27.21-6.79Z" transform="translate(1.756 -.58)"/><path fill="#1c2435" d="M626.756 464.29c5.25 36-25.2 58.06-66.09 64s-77.08-8.75-82-42.42c-6.23-42.73 25.7-58.65 66.59-64.62s74.77-2.83 81.5 43.04Z"/><g clip-path="url(#j)" transform="translate(1.756 -.58)"><path fill="#18202d" d="M475.15 486.89s20.71 46.49 85.41 35.05C595 517 619.89 497.89 626 464.72c1.56 21 2.6 55.61-65.48 67.73-40.33 6.41-78.09 0-85.37-45.56Z"/><clipPath id="j"><path fill="none" d="M625 464.87c5.25 36-25.2 58.06-66.09 64s-77.08-8.75-82-42.42c-6.23-42.73 25.7-58.65 66.59-64.62s74.77-2.83 81.5 43.04Z"/></clipPath></g><path fill="#fff" d="M542.398 466.302c2.56 11.395-4.278 22.793-15.537 25.899s-22.973-3.174-26.618-14.27c-3.212-11.692 4.367-21.536 16.058-24.759s22.888 1.467 26.097 13.13Z"/><g transform="rotate(-7.113 515.782 458.85)"><circle r="17.91" fill="url(#k)" transform="translate(518.258 475.619) scale(.9446)"/><path fill="#fff" d="M528.343 466.348z"/><circle r="4.38" fill="#fff" transform="matrix(.8 0 0 .8 519.358 465.199)"/></g><path fill="#fff" d="M603.108 457.092c3.066 11.623-3.814 23.545-15.412 26.704s-23.575-3.625-26.827-15.198c-3.177-11.702 4.601-21.795 16.263-24.967s22.844 1.794 25.976 13.461Z"/><g transform="rotate(-6.937 576.422 449.533)"><circle r="17.91" fill="url(#l)" transform="matrix(.94 0 0 .94 579.037 466.343)"/><path fill="#fff" d="M590.567 458.557z"/><circle r="4.45" fill="#fff" transform="matrix(.8 0 0 .8 582.417 455.803)"/></g><path fill="none" stroke="#101526" stroke-linecap="round" stroke-miterlimit="10" stroke-width="2.07" d="M550.026 501.16s5.61-6.91 14.83-2.32"/><path fill="#101526" d="M546.996 480.78a2.34 2.34 0 0 1 .29-3.48 14.67 14.67 0 0 1 12.59-1.83 2.34 2.34 0 0 1 1.2 3.19c-1.31 2.74-3.64 7.09-6.23 7.41-2.09.22-3.93-1-7.85-5.29Z"/><path fill="none" stroke="#101526" stroke-linecap="round" stroke-linejoin="round" stroke-width="2.256" d="m554.536 483.21 2.05 14.07"/><path fill="none" stroke="#101526" stroke-linecap="round" stroke-miterlimit="10" stroke-width="2.256" d="m617.446 479.02 19.41 5.25m-3.82-26.22-17.11 10.58m.08 5.27 19.88-3.06m-163.71 10.68 19.42 5.25m1.42 5.07-19.92 2.75m20.01 2.56-17.1 10.58"/><g clip-path="url(#m)" transform="matrix(.95581 0 0 1 14.298 3.14)"><g stroke="#d5a127" stroke-miterlimit="10"><circle r="15.94" fill="#d5b027" stroke-width="3.847" transform="translate(534.71 549.13)"/><path fill="none" stroke-width="1.923" d="M531.88 530.93s-4.16 20.38 17.15 32.86"/><path fill="none" stroke-width="1.923" d="M528.23 532.28s-4.16 20.38 17.15 32.85"/><path fill="none" stroke-width="1.923" d="M525 534.3s-4.16 20.38 17.15 32.86m-9.63-24.68s4-6.81 10.8-8.37m-9.01 13.28s4.62-8.26 12.64-10.8m-10.28 15.13s4.62-8.26 12.65-10.8m-10.65 13.87s5.81-7.47 14.12-8.78m-11.64 11.7s7.26-6.06 15.67-5.57"/><path fill="none" stroke-width="1.923" d="M522.28 537.44s-4.16 20.38 17.15 32.85"/></g><clipPath id="m"><circle r="15.94" fill="none" transform="translate(534.51 549.1)"/></clipPath></g><path fill="none" stroke="#d5b027" stroke-linecap="round" stroke-linejoin="round" stroke-width="1.923" d="M531.75 547.06c-6.5-11.95-5.55-15-2.14-11.26m11.72 19.06s11.49-11 13.75-6.24c.52 2.83-3.18 2.89-8.26 2.54m-20.33 3.18s0 8.95 4.16 11.31c1.27.58 1.5-1.27-.4-5.71" transform="matrix(.95581 0 0 1 14.298 3.14)"/><circle r="12.19" fill="#1c2435" transform="matrix(1.19 0 0 1.19 655.62 513.47)"/><circle r="12.19" fill="#182231" transform="translate(508.12 563.66) scale(1.19178)"/></g><g fill="none" stroke-linecap="round" stroke-miterlimit="10"><path stroke="#45aaf2" stroke-width="1.262" d="M317.145 119.599s5.155-2.853 11.18-.19c7.909 3.403 8.152 10.206 4.302 16.852s-10.588 15.3-30.691 12.677c-19.579-2.796-15.138-10.486-5.768-8.392 6.56 1.469 16.49 3.497 26.396 14.336 20.457 18.241 2.049 16.606-11.066-.701-9.083-12.01-2.341-21.02-.822-33.842 8.27-18.94 5.525-32.604 19.336-51.383 14.392-20.503 18.544 5.72 13.301 24.041-7.034 24.6-21.27 27.362-17.66 14.129 2.152-7.891 9.283-17.873 22.289-28.456 27.601-26.49 15.977-30.772 10.326-15.069-4.262 11.145-8.173 16.767-13.234 23.372-37.104 41.932-71.593 11.585-67.223 62.46 4.718 52.276-27.718 57.818-54.82 37.955-15.042-12.8-35.393-8.406-33.995-3.532s20.537-1.165 27.45-13.902c4.244-7.82 2.298-16.945-17.028-23.414-12.019-4.616-22.663-10.18-27.06-21.94-2.814-7.528-3.662-22.849 6.471-25.717"/><path stroke="#3cbfc5" stroke-width="1.009" d="M197.163 65.724s13.186-19.39 1.066-14.848c-9.557 3.966-19.797 11.034-16.068 26.995 1.635 6.757 3.194 16.945 19.852 11.635 4.119-1.008 7.257-7.197-2.85-11.76s-26.24-18.882-31.705-16.55 5.127 10.838 9.79 14.098 8.607 11.377 5.01 21.915c-2.164 6.26-10.965 22.555-23.54 18.67-8.628-2.68-20.396-12.469-18.301-18.67 2.8-5.48 21.914 15.965 25.76 30.276s2.482 33.737 16.318 39.046c9.265 3.532 23.949-2.019 26.689-16.9 3.088-16.218-10.673-15.216-13.705-12.768"/></g><path fill="none" stroke="#e50648" stroke-linecap="round" stroke-miterlimit="10" stroke-width="1.009" d="M285.053 15.367s4.466-9.587 12.525-11.374c6.211-1.372 8.825-.504 4.697 14.871-.756 3.35-6.383 8.725-21.793 5.667-6-1.544-2.523-3.649 8.275-5.596s27.376 4.334 24.702 8.678c-2.1 3.406-10.485-8.7-30.563-.607-14.452 5.829-28.815 11.896-42.293 1.334-8.947-8.265-12.913-14.25-9.845-16.626s9.395 1.311 9.366 12.968c.354 17.093-18.952 29.388-28.883 31.386-18.327 3.694-28.952 4.95-42.105-4.718-11.402-8.837-25.326-3.855-28.555 9.028s6.583 27.613 35.675 32.799c19.82 2.975 26.988 12.891 31.11 22.5 2.126 4.952 5.78 10.99 11.268 10.892"/><g clip-path="url(#n)" transform="translate(-52.754 -242.075) scale(.47555)"><circle r="31.98" fill="#e50648" stroke="#c2053d" stroke-width="5" transform="rotate(-52.38 925.652 -471.027)"/><path fill="none" stroke="#b7213e" stroke-miterlimit="10" stroke-width="3.847" d="M755.887 523.713s-26.71 15.13-32.51 60.05"/><path fill="none" stroke="#b7213e" stroke-miterlimit="10" stroke-width="3.847" d="M746.139 518.833s-25.34 17.295-27.418 62.554"/><path fill="none" stroke="#b7213e" stroke-miterlimit="10" stroke-width="3.847" d="M739.954 513.608s-27.108 16.343-26.748 62.843"/><path fill="none" stroke="#b7213e" stroke-miterlimit="10" stroke-width="3.847" d="M740.79 515.26s-35.768 5.757-36.92 57.489m21.113-.745s20.205 6.501 38.407-4.648m-36.083-6.776s18.105 8.747 37.997 3.387m-35.248-8.212s18.56 5.714 38.471-1.047m-35.82-3.642a71.64 71.64 0 0 0 36.743-6.64m-32.39-1.776a71.7 71.7 0 0 0 36.69-6.93m-30.909-1.038c12.617.965 24.765-1.417 36.159-6.922"/><clipPath id="n"><circle r="31.98" fill="none" transform="rotate(-52.38 925.652 -471.027)"/></clipPath></g><path fill="none" stroke="#cf2a4a" stroke-linecap="round" stroke-miterlimit="10" stroke-width=".914" d="M300.177 21.476c4.466-.21 12.565 3.852 13.43 1.027.224-2.596-3.158-1.027-8.156-1.355m-15.441-1.249s-1.484 2.145-3.296 4.342c-2.087 2.468-5.492 3.405-5.33 5.987s4.393 2.687 5.825-.77a26.888 26.888 0 0 0 1.755-5.707m-5.502-8.148s1.374-2.967 4.066-9.116C290.115.57 292.42.88 292.854 2.42c.88 3.129-5.873 3.956-8.237 10.162"/><g clip-path="url(#o)" transform="translate(-269.903 -273.462) scale(.62574)"><g stroke="#35a7ac"><circle r="31.98" fill="#3cbfc5" stroke-width="5" transform="rotate(-52.38 925.652 -471.027)"/><path fill="none" stroke-miterlimit="10" stroke-width="3" d="M755.887 523.713s-27.754 14.51-32.51 60.05m21.281-63.683s-28.244 14.41-32.52 60.06"/><path fill="none" stroke-miterlimit="10" stroke-width="3" d="M749.196 519.927s-27.285 16.152-28.694 61.98m18.963-67.405s-28.073 14.623-30.609 61.056"/><path fill="none" stroke-miterlimit="10" stroke-width="3" d="M738.67 514s-35.26 8.32-32.68 60m19.07-.454s20.44 5.72 38.2-6.12"/><path fill="none" stroke-miterlimit="10" stroke-width="3" d="M725.291 570.133s20.811 4.172 37.634-8.966M727.27 562.3s19.57 4.62 37.83-4.92m-34.855-2.018s18.92 4.38 38.3-3.78m-35.543.182a71.64 71.64 0 0 0 36.4-8.321m-32.342.82a71.7 71.7 0 0 0 36.69-6.93m-31.41-1.03a71.7 71.7 0 0 0 36.66-6.93"/></g><clipPath id="o"><circle r="31.98" fill="none" transform="rotate(-52.38 925.652 -471.027)"/></clipPath></g><path fill="none" stroke="#3cbfc5" stroke-linecap="round" stroke-miterlimit="10" stroke-width="1.203" d="M194.492 73.324c5.875-.275 16.532 5.069 17.67 1.352.295-3.417-4.154-1.352-10.73-1.784m-19.226-1.952s-1.953 2.822-4.337 5.713c-2.747 3.248-7.227 4.48-7.014 7.878s5.782 3.536 7.665-1.013a35.38 35.38 0 0 0 2.309-7.51m-8.332-10.412s1.808-3.904 5.35-11.995c3.404-7.784 6.439-7.378 7.008-5.35 1.158 4.117-7.728 5.206-10.838 13.372"/><g clip-path="url(#p)" transform="translate(-205.282 -248.455) scale(.7101)"><g stroke="#1984d0"><circle r="31.98" fill="#45aaf2" stroke-width="5" transform="rotate(-52.38 925.652 -471.027)"/><path fill="none" stroke-miterlimit="10" stroke-width="3" d="M755.887 523.713s-27.754 14.51-32.51 60.05m20.32-65.789s-26.7 17.102-26.495 62.95"/><path fill="none" stroke-miterlimit="10" stroke-width="3" d="M752.654 519.447s-8.756 4.026-17.64 15.253a72.374 72.374 0 0 0-3.59 4.956 77.237 77.237 0 0 0-4.194 7.15c-4.213 8.14-7.776 18.438-9.516 31.326m23.806-63.792S713 528.07 709 574.4"/><path fill="none" stroke-miterlimit="10" stroke-width="3" d="M738.67 514s-35.26 8.32-32.68 60m19.07-1.26s20.44 5.72 38.2-6.12m-36.65.08s19.57 4.62 37.83-4.92m-35.444-.169s19.256 2.525 37.753-7.476"/><path fill="none" stroke-miterlimit="10" stroke-width="3" d="M730.077 554.27s18.298 6.506 38.481.607m-35.878-3.984a71.64 71.64 0 0 0 36.805-6.292m-34.523 1.569a71.7 71.7 0 0 0 35.58-11.327m-32.212 6.219a71.7 71.7 0 0 0 35.41-11.75m-30.13 4.488a71.7 71.7 0 0 0 35.411-11.75"/></g><clipPath id="p"><circle r="31.98" fill="none" transform="rotate(-52.38 925.652 -471.027)"/></clipPath></g><path fill="none" stroke="#45aaf2" stroke-linecap="round" stroke-miterlimit="10" stroke-width="1.42" d="M321.712 145.078c6.668-.313 18.76 5.751 20.053 1.533.334-3.877-4.715-1.533-12.178-2.023m-25.045-3.622s-2.216 3.202-4.921 6.483c-3.118 3.685-8.202 5.084-7.96 8.94s6.56 4.012 8.698-1.15a40.149 40.149 0 0 0 2.62-8.521m-6.227-10.41s2.052-4.43 6.071-13.612c3.863-8.834 7.307-8.372 7.953-6.072 1.314 4.673-8.77 5.908-12.298 15.175"/><path fill="#3cbfc5" d="M9.739 126.754c0-4.48 1.493-7.716 2.991-11.2l37.1-91.615a15.577 15.577 0 0 1 14.69-10.205c9.21 0 15.93 7.218 15.93 15.432a21.795 21.795 0 0 1-1.743 7.984l-31.62 79.131h31.865V80.2c0-8.96 7.222-16.437 15.934-16.437 8.96 0 16.183 7.716 16.183 16.437v36.081h10.205c7.984 0 13.694 5.725 13.694 13.938s-5.725 13.944-13.694 13.944h-10.205v19.667c0 8.712-6.974 16.437-16.183 16.437-8.96 0-15.934-7.472-15.934-16.437v-19.649H28.913c-10.454 0-19.174-7.237-19.174-17.427Zm355.293 0c0-4.48 1.493-7.716 2.991-11.2l37.1-91.615a15.577 15.577 0 0 1 14.69-10.205c9.21 0 15.93 7.218 15.93 15.432A21.795 21.795 0 0 1 434 37.15l-31.62 79.131h31.864V80.2c0-8.96 7.223-16.437 15.934-16.437 8.96 0 16.183 7.716 16.183 16.437v36.081h10.205c7.984 0 13.694 5.725 13.694 13.938s-5.724 13.944-13.694 13.944h-10.205v19.667c0 8.712-6.974 16.437-16.183 16.437-8.96 0-15.934-7.472-15.934-16.437v-19.649h-50.038c-10.454 0-19.175-7.237-19.175-17.427Z"/></svg>
