<?xml version="1.0" encoding="UTF-8" standalone="no"?>
<svg
   width="12"
   height="20"
   viewBox="0 0 12 20"
   fill="none"
   version="1.1"
   id="svg16"
   sodipodi:docname="machine-card.svg"
   xmlns:inkscape="http://www.inkscape.org/namespaces/inkscape"
   xmlns:sodipodi="http://sodipodi.sourceforge.net/DTD/sodipodi-0.dtd"
   xmlns="http://www.w3.org/2000/svg"
   xmlns:svg="http://www.w3.org/2000/svg">
  <defs
     id="defs20" />
  <sodipodi:namedview
     id="namedview18"
     pagecolor="#ffffff"
     bordercolor="#000000"
     borderopacity="0.25"
     inkscape:showpageshadow="2"
     inkscape:pageopacity="0.0"
     inkscape:pagecheckerboard="0"
     inkscape:deskcolor="#d1d1d1"
     showgrid="false" />
  <path
     d="M 11.522671,0.64292746 11.468146,15.438183 0.47193026,15.408221 0.53185456,0.62174102 Z M 11,0 H 1 C 0.4,0 0,0.5 0,1.1 V 15 c 0,0.5 0.4,1 1,1 h 10 c 0.6,0 1,-0.5 1,-1.1 V 1.1 C 12,0.5 11.6,0 11,0 Z"
     fill="#F87373"
     id="path2"
     style="fill:#000000"
     sodipodi:nodetypes="cccccsssssssss" />
  <path
     d="m 9.5580319,15.970038 -2e-7,3.498107 H 2.4419679 V 15.910114 Z M 10.029962,15.468145 2.0299621,15.52807 2,19 c -0.00518,0.599977 0.4,1 1,1 h 6 c 0.6,0 1,-0.4 1,-1 z"
     fill="#F87373"
     id="path4"
     style="fill:#000000"
     sodipodi:nodetypes="cccccccssssc" />
  <path
     d="M 8,3 H 4 C 3.4,3 3,3.4 3,4 V 6 C 3,6.6 3.4,7 4,7 H 8 C 8.6,7 9,6.6 9,6 V 4 C 9,3.4 8.6,3 8,3 Z"
     fill="#F87373"
     id="path6"
     style="fill:#000000" />
  <path
     d="M 4,8 C 3.4,8 3,8.4 3,9 3,9.6 3.4,10 4,10 4.6,10 5,9.6 5,9 5,8.4 4.6,8 4,8 Z"
     fill="#F87373"
     id="path8"
     style="fill:#000000" />
  <path
     d="m 4,11 c -0.6,0 -1,0.4 -1,1 0,0.6 0.4,1 1,1 0.6,0 1,-0.4 1,-1 0,-0.6 -0.4,-1 -1,-1 z"
     fill="#F87373"
     id="path10"
     style="fill:#000000" />
  <path
     d="M 8,8 C 7.4,8 7,8.4 7,9 7,9.6 7.4,10 8,10 8.6,10 9,9.6 9,9 9,8.4 8.6,8 8,8 Z"
     fill="#F87373"
     id="path12"
     style="fill:#000000" />
  <path
     d="m 8,11 c -0.6,0 -1,0.4 -1,1 0,0.6 0.4,1 1,1 0.6,0 1,-0.4 1,-1 0,-0.6 -0.4,-1 -1,-1 z"
     fill="#F87373"
     id="path14"
     style="fill:#000000" />
</svg>
